<svg width="32" height="50" viewBox="0 0 32 50" fill="none" xmlns="http://www.w3.org/2000/svg">
<path fill-rule="evenodd" clip-rule="evenodd" d="M16 0C16.4714 0 16.9236 0.188125 17.2569 0.52299C17.5903 0.857855 17.7775 1.31203 17.7775 1.7856V43.9008L28.9617 32.6622C29.2955 32.3269 29.7482 32.1386 30.2202 32.1386C30.6923 32.1386 31.1449 32.3269 31.4787 32.6622C31.8125 32.9975 32 33.4522 32 33.9264C32 34.4006 31.8125 34.8553 31.4787 35.1906L17.2585 49.4754C17.0934 49.6417 16.8972 49.7736 16.6813 49.8636C16.4653 49.9537 16.2338 50 16 50C15.7662 50 15.5347 49.9537 15.3187 49.8636C15.1028 49.7736 14.9066 49.6417 14.7415 49.4754L0.521283 35.1906C0.187511 34.8553 -1.11213e-08 34.4006 0 33.9264C1.11213e-08 33.4522 0.187511 32.9975 0.521283 32.6622C0.855056 32.3269 1.30775 32.1386 1.77977 32.1386C2.2518 32.1386 2.70449 32.3269 3.03826 32.6622L14.2225 43.9008V1.7856C14.2225 1.31203 14.4097 0.857855 14.7431 0.52299C15.0765 0.188125 15.5286 0 16 0Z" fill="#E2571C"/>
</svg>
