<svg width="657" height="547" viewBox="0 0 657 547" fill="none" xmlns="http://www.w3.org/2000/svg">
<g clip-path="url(#clip0_6_2615)">
<path d="M292.393 103.947C292.266 103.947 292.138 103.943 292.011 103.935C283.583 103.393 254.745 99.311 237.522 69.5154C236.25 67.3162 236.501 64.5177 238.148 62.5538H238.149C252.531 50.8498 263.766 38.1829 270.398 24.108C271.595 22.6801 273.392 21.8996 275.211 21.9317C277.079 21.9759 278.8 22.8557 279.933 24.3456C288.11 35.0963 304.253 54.1275 320.496 60.7999C322.321 61.5506 323.643 63.0737 324.122 64.9815C324.597 66.8731 324.157 68.8233 322.916 70.3315L297.08 101.72C295.919 103.132 294.189 103.947 292.393 103.947V103.947V103.947Z" fill="#E6E6E6"/>
<path d="M243.03 64.0667L243.48 64.4443C243.04 64.97 242.959 65.7195 243.28 66.3118C258.86 95.0181 286.716 97.2702 292.141 97.4297C292.664 97.4596 293.154 97.2243 293.485 96.8214L319.135 65.6587C319.498 65.2168 319.61 64.6532 319.443 64.1091C319.274 63.5628 318.86 63.1553 318.306 62.9946C300.886 57.9005 282.608 34.3055 277.421 27.1946C277.117 26.7791 276.649 26.53 276.136 26.5128C275.609 26.5076 275.129 26.7148 274.793 27.1143C267.371 41.5935 256.98 54.0681 243.48 64.4443L243.03 64.0667V64.0667Z" fill="white"/>
<path d="M256.396 71.1684L279.647 47.4484C281.236 45.827 278.746 43.3315 277.155 44.955L253.904 68.6751C252.315 70.2965 254.805 72.7919 256.396 71.1684V71.1684Z" fill="#E6E6E6"/>
<path d="M270.429 77.8511C276.846 72.0963 282.422 65.4332 286.988 58.1218C288.193 56.1918 285.146 54.4197 283.945 56.342C279.531 63.4106 274.14 69.7948 267.937 75.3577C266.245 76.8755 268.744 79.3625 270.429 77.8511H270.429H270.429Z" fill="#E6E6E6"/>
<path d="M283.077 85.853C288.919 79.3776 293.892 72.1506 297.807 64.3549C298.823 62.3326 295.784 60.545 294.764 62.5752C290.982 70.1072 286.231 77.1019 280.585 83.3596C279.068 85.0403 281.553 87.5417 283.077 85.853Z" fill="#E6E6E6"/>
<path d="M313.538 113.35C313.411 113.35 313.283 113.346 313.155 113.338C304.728 112.796 275.89 108.714 258.667 78.9186C257.395 76.7194 257.646 73.9209 259.293 71.957H259.293C272.958 60.0987 283.245 47.1316 291.542 33.5112C292.74 32.0833 294.537 31.3028 296.356 31.3349C298.224 31.3791 299.944 32.2589 301.078 33.7488C309.254 44.4995 325.397 63.5307 341.64 70.2031C343.466 70.9538 344.788 72.4769 345.267 74.3847C345.742 76.2763 345.302 78.2265 344.06 79.7347L318.225 111.124C317.064 112.535 315.334 113.35 313.538 113.35V113.35V113.35Z" fill="#E6E6E6"/>
<path d="M264.175 73.4699L264.624 73.8475C264.184 74.3732 264.104 75.1227 264.425 75.715C280.005 104.421 307.861 106.673 313.286 106.833C313.809 106.863 314.298 106.627 314.63 106.225L340.28 75.0619C340.643 74.62 340.755 74.0564 340.588 73.5123C340.419 72.9659 340.005 72.5585 339.451 72.3978C322.03 67.3037 303.752 43.7087 298.565 36.5978C298.262 36.1823 297.793 35.9332 297.281 35.916C296.754 35.9108 296.273 36.118 295.938 36.5175C287.047 51.2994 277.046 64.4028 264.624 73.8475L264.175 73.4699V73.4699Z" fill="white"/>
<path d="M277.541 80.5716L300.791 56.8516C302.381 55.2302 299.891 52.7347 298.299 54.3582L275.049 78.0782C273.46 79.6997 275.95 82.1951 277.541 80.5716V80.5716Z" fill="#E6E6E6"/>
<path d="M291.574 87.2543C297.991 81.4995 303.567 74.8364 308.133 67.525C309.338 65.595 306.29 63.8229 305.09 65.7452C300.676 72.8138 295.285 79.198 289.082 84.7609C287.39 86.2787 289.889 88.7657 291.574 87.2543H291.574H291.574Z" fill="#E6E6E6"/>
<path d="M304.221 95.2562C310.064 88.7808 315.037 81.5538 318.952 73.7581C319.968 71.7358 316.929 69.9482 315.909 71.9784C312.126 79.5104 307.375 86.5051 301.73 92.7628C300.213 94.4435 302.698 96.9449 304.221 95.2562Z" fill="#E6E6E6"/>
<path d="M544.956 331.972C544.829 331.972 544.702 331.968 544.574 331.96C536.146 331.418 507.308 327.336 490.085 297.541C488.813 295.341 489.065 292.543 490.711 290.579H490.712L522.961 252.133C524.158 250.705 525.956 249.925 527.774 249.957C529.642 250.001 532.039 250.555 532.496 252.371C536.211 267.125 552.212 286.284 573.059 288.825C575.018 289.064 576.206 291.099 576.685 293.007C577.161 294.898 576.721 296.848 575.479 298.357L549.644 329.746C548.482 331.157 546.752 331.972 544.956 331.972V331.972Z" fill="#E6E6E6"/>
<path d="M495.593 292.092L496.043 292.469C495.603 292.995 495.523 293.745 495.843 294.337C511.424 323.043 539.279 325.295 544.704 325.455C545.227 325.485 545.717 325.249 546.048 324.847L571.698 293.684C572.061 293.242 572.173 292.678 572.006 292.134C571.838 291.588 571.446 291.047 570.869 291.02C548.695 289.979 530.884 265.986 529.984 255.22C529.941 254.707 529.212 254.555 528.699 254.538C528.172 254.533 527.692 254.74 527.356 255.139L496.043 292.469L495.593 292.092V292.092Z" fill="white"/>
<path d="M508.959 299.194L532.21 275.474C533.799 273.852 531.309 271.357 529.718 272.98L506.467 296.7C504.878 298.322 507.368 300.817 508.959 299.194Z" fill="#E6E6E6"/>
<path d="M522.992 305.876C529.409 300.122 534.985 293.458 539.551 286.147C540.757 284.217 537.709 282.445 536.508 284.367C532.094 291.436 526.703 297.82 520.5 303.383C518.808 304.901 521.307 307.388 522.992 305.876H522.992V305.876Z" fill="#E6E6E6"/>
<path d="M535.64 313.878C541.482 307.403 546.455 300.176 550.371 292.38C551.386 290.358 548.347 288.57 547.328 290.6C543.545 298.132 538.794 305.127 533.148 311.385C531.632 313.066 534.116 315.567 535.64 313.878Z" fill="#E6E6E6"/>
<path d="M448.344 536.904L434.412 536.903L427.785 483.137L448.346 483.139L448.344 536.904Z" fill="#FFB6B6"/>
<path d="M400.614 536.588C400.18 537.319 399.951 539.678 399.951 540.528C399.951 543.141 402.068 545.259 404.68 545.259H447.822C449.604 545.259 451.048 543.814 451.048 542.032V540.234C451.048 540.234 453.182 534.833 448.788 528.175C448.788 528.175 443.327 533.388 435.167 525.223L432.76 520.861L415.341 533.608L405.686 534.797C403.574 535.057 401.701 534.757 400.614 536.588H400.614V536.588Z" fill="#2F2E41"/>
<path d="M576.986 509.396L565.119 516.699L531.319 474.379L548.832 463.601L576.986 509.396Z" fill="#FFB6B6"/>
<path d="M536.167 534.15C536.181 535.001 537.221 537.13 537.666 537.854C539.035 540.079 541.947 540.774 544.171 539.404L580.917 516.786C582.434 515.852 582.908 513.864 581.974 512.345L581.033 510.815C581.033 510.815 580.022 505.095 572.793 501.728C572.793 501.728 570.872 509.032 559.646 506.355L555.312 503.902L547.15 523.891L539.549 529.966C537.887 531.295 536.134 532.021 536.167 534.15L536.167 534.151L536.167 534.15V534.15Z" fill="#2F2E41"/>
<path d="M489.425 285.433C488.736 282.423 488.788 279.501 489.435 277.08L481.041 248.838L494.708 245.131L501.751 274.178C503.384 276.062 504.702 278.661 505.391 281.671C506.966 288.547 504.669 294.963 500.26 296.001C495.852 297.04 491 292.308 489.425 285.433L489.425 285.433V285.433Z" fill="#FFB6B6"/>
<path d="M411.664 97.1801C411.664 97.1801 433.689 87.5879 445.987 101.449C457.181 114.066 479.904 152.032 477.571 155.726L499.942 261.492L483.36 266.603L439.373 144.947L411.664 97.1801H411.664V97.1801Z" fill="#F06023"/>
<path d="M387.407 253.922L398.755 386.392L426.18 509.4L455.495 506.561L441.31 372.199L449.993 252.791L387.407 253.922Z" fill="#2F2E41"/>
<path d="M389.753 282.666L460.435 395.252L541.082 492.063L565.849 476.115L491.78 363.145C480.443 313.383 467.889 267.32 444.882 253.001L389.753 282.666L389.753 282.666V282.666Z" fill="#2F2E41"/>
<path d="M393.878 283.216C390.562 283.216 387.351 282.048 384.735 279.828C381.222 276.847 379.392 272.502 379.714 267.906L385.88 208.715L383.525 144.08L383.539 144.01L390.86 108.886C390.932 107.77 391.166 106.588 391.543 105.454L402.355 72.9272C404.3 67.0767 409.746 63.1459 415.908 63.1459H425.469C430.256 63.1459 434.699 65.5248 437.354 69.5101L445.723 82.072C446.28 82.9065 446.749 83.8024 447.118 84.735L465.596 131.396C466.182 132.878 466.516 134.436 466.587 136.027L472.32 265.526C472.511 269.825 470.783 273.94 467.578 276.814C464.394 279.672 460.145 280.936 455.931 280.285C431.802 276.557 410.685 279.605 397.217 282.82C396.105 283.086 394.985 283.216 393.878 283.216V283.216L393.878 283.216Z" fill="#F06023"/>
<path d="M391.19 154.57L375.113 142.269C375.113 142.269 382.679 75.0882 402.538 75.0882C422.397 75.0882 432.799 63.7336 432.799 63.7336C432.799 63.7336 503.725 163.086 483.865 174.441C464.006 185.795 436.582 180.118 436.582 180.118L426.923 95.2446C425.736 90.758 419.565 90.2722 417.691 94.5178L391.19 154.57L391.19 154.57L391.19 154.57Z" fill="#3F3D56"/>
<path d="M417.637 60.251C432.819 60.251 445.126 47.9369 445.126 32.7467C445.126 17.5565 432.819 5.24243 417.637 5.24243C402.456 5.24243 390.149 17.5565 390.149 32.7467C390.149 47.9369 402.456 60.251 417.637 60.251Z" fill="#FFB6B6"/>
<path d="M439.405 53.5391C436.926 54.4654 433.124 55.9057 430.645 56.8321C428.332 52.2195 431.165 49.8259 431.46 44.6739C431.558 42.9546 431.806 41.2334 431.663 39.5171C431.521 37.8008 430.932 36.0392 429.638 34.9035C427.658 33.1664 424.362 33.4489 422.446 35.2556C420.53 37.0623 419.984 40.0476 420.767 42.5628C413.23 39.3028 408.36 30.7503 409.401 22.6007C407.15 21.7179 404.843 20.8231 402.426 20.7556C400.01 20.688 397.42 21.6108 396.132 23.6581C395.229 25.0936 395.049 26.916 394.036 28.2758C392.389 30.4853 388.83 30.6565 386.644 28.9805C384.457 27.3044 383.62 24.2587 384.086 21.5423C384.553 18.8259 381.159 13.2825 383.059 11.2866C384.355 9.92497 390.787 11.8542 392.232 10.6531C393.551 9.55731 394.875 8.45786 396.329 7.54877C398.175 6.39482 400.218 5.55916 402.343 5.08959C404.353 4.64542 406.419 4.52875 408.474 4.41351C410.561 4.2965 413.447 0.139435 415.534 0.0224247C421.677 -0.322058 427.167 3.38964 433.061 5.15675C438.955 6.92386 442.663 11.9983 445.926 17.2181C450.573 24.6533 448.993 32.8001 445.793 39.9095C445.002 41.6668 447.657 43.5136 447.264 45.4003C446.898 47.1541 445.256 48.4244 444.872 50.1742C444.544 51.6705 442.603 49.937 442.14 51.3971C441.741 52.6572 440.563 53.5468 439.305 53.949C438.046 54.3511 436.699 54.343 435.377 54.331" fill="#2F2E41"/>
<path d="M433.505 63.0278L434.474 63.7337L436.916 65.5129C444.259 70.8623 443.577 82.0289 435.636 86.4428L425.707 70.5732" fill="#3F3D56"/>
<path d="M593.261 526.627C595.688 526.779 597.029 523.762 595.193 522.004L595.011 521.277C595.035 521.219 595.059 521.161 595.083 521.103C597.538 515.247 605.855 515.288 608.289 521.152C610.449 526.357 613.198 531.571 613.875 537.074C614.179 539.503 614.042 541.978 613.504 544.362C618.564 533.301 621.228 521.222 621.228 509.076C621.228 506.024 621.061 502.972 620.719 499.928C620.438 497.438 620.052 494.963 619.551 492.511C616.842 479.256 610.977 466.631 602.517 456.086C598.45 453.861 595.059 450.384 593.01 446.217C592.274 444.713 591.698 443.096 591.425 441.449C591.887 441.51 593.17 434.457 592.821 434.024C593.466 433.045 594.62 432.558 595.324 431.603C598.828 426.85 603.655 427.68 606.174 434.138C611.557 436.857 611.609 441.365 608.306 445.7C606.205 448.459 605.916 452.191 604.073 455.144C604.262 455.387 604.46 455.623 604.649 455.866C608.128 460.33 611.136 465.128 613.672 470.168C612.956 464.566 614.014 457.817 615.818 453.467C617.872 448.51 621.721 444.335 625.11 440.05C629.182 434.902 637.531 437.149 638.248 443.674C638.255 443.737 638.262 443.8 638.269 443.863C637.765 444.147 637.272 444.449 636.79 444.768C634.042 446.587 634.992 450.849 638.248 451.352L638.322 451.364C638.14 453.178 637.829 454.977 637.373 456.746C641.722 473.573 632.334 479.701 618.929 479.977C618.633 480.129 618.344 480.28 618.049 480.425C619.407 484.251 620.492 488.176 621.296 492.154C622.017 495.669 622.517 499.222 622.798 502.79C623.147 507.292 623.117 511.816 622.737 516.31L622.76 516.151C623.724 511.201 626.41 506.578 630.31 503.374C636.119 498.599 644.327 496.841 650.595 493.002C653.612 491.155 657.478 493.542 656.951 497.042L656.926 497.21C655.993 497.589 655.082 498.03 654.202 498.523C653.699 498.807 653.205 499.109 652.723 499.428C649.975 501.247 650.925 505.51 654.181 506.012L654.255 506.024C654.308 506.031 654.354 506.039 654.407 506.047C652.806 509.85 650.575 513.38 647.783 516.424C645.064 531.113 633.386 532.507 620.894 528.229H620.886C619.52 534.181 617.525 539.997 614.96 545.538H593.792C593.716 545.303 593.648 545.06 593.579 544.825C595.537 544.946 597.51 544.832 599.437 544.476C597.866 542.547 596.296 540.604 594.725 538.676C594.687 538.638 594.657 538.6 594.626 538.562C593.83 537.575 593.026 536.595 592.229 535.609L592.228 535.607C592.179 532.578 592.542 529.558 593.261 526.628L593.261 526.627L593.261 526.627V526.627Z" fill="#F2F2F2"/>
<path d="M227.278 545.601C227.278 546.377 227.901 547 228.676 547H655.437C656.213 547 656.835 546.377 656.835 545.601C656.835 544.826 656.213 544.203 655.437 544.203H228.676C227.901 544.203 227.278 544.826 227.278 545.601Z" fill="#CCCCCC"/>
<path d="M294.875 95.7612C297.354 97.3981 299.257 99.4594 300.415 101.562L325.015 115.663L317.967 127.179L293.772 111.635C291.384 111.397 288.741 110.456 286.262 108.819C280.599 105.08 277.936 99.1255 280.314 95.5196C282.693 91.9137 289.211 92.0219 294.874 95.7612H294.875L294.875 95.7612Z" fill="#FFB6B6"/>
<path d="M410.615 80.8971C426.302 71.2709 442.066 93.3153 428.118 105.326L428.071 105.367L372.339 157.815L305.642 124.859L312.237 107.066L363.911 127.547L402.674 87.2835C405.372 84.5804 408.027 82.4853 410.615 80.8971H410.615V80.8971Z" fill="#F06023"/>
<path d="M80.227 168.47C78.9312 168.47 77.8776 169.524 77.8776 170.821V207.258C77.8776 208.554 78.9312 209.609 80.227 209.609C81.5227 209.609 82.5764 208.554 82.5764 207.258V170.821C82.5764 169.524 81.5227 168.47 80.227 168.47Z" fill="#3F3D56"/>
<path d="M103.253 203.58C111.338 203.58 117.893 197.16 117.893 189.24C117.893 181.32 111.338 174.899 103.253 174.899C95.1667 174.899 88.6118 181.32 88.6118 189.24C88.6118 197.16 95.1667 203.58 103.253 203.58Z" fill="#F06023"/>
<path d="M220.622 184.334H141.816C139.112 184.334 136.913 182.133 136.913 179.428C136.913 176.723 139.112 174.522 141.816 174.522H220.622C223.325 174.522 225.525 176.723 225.525 179.428C225.525 182.133 223.325 184.334 220.622 184.334Z" fill="#F2F2F2"/>
<path d="M282.122 200.939H141.816C139.112 200.939 136.913 198.738 136.913 196.033C136.913 193.327 139.112 191.127 141.816 191.127H282.122C284.825 191.127 287.025 193.327 287.025 196.033C287.025 198.738 284.825 200.939 282.122 200.939H282.122Z" fill="#F2F2F2"/>
<path d="M14.6408 281.133C22.7266 281.133 29.2815 274.712 29.2815 266.792C29.2815 258.872 22.7266 252.451 14.6408 252.451C6.5549 252.451 0 258.872 0 266.792C0 274.712 6.5549 281.133 14.6408 281.133Z" fill="#F06023"/>
<path d="M132.01 261.886H53.2041C50.5006 261.886 48.301 259.685 48.301 256.98C48.301 254.275 50.5006 252.074 53.2041 252.074H132.01C134.713 252.074 136.913 254.275 136.913 256.98C136.913 259.685 134.713 261.886 132.01 261.886Z" fill="#F2F2F2"/>
<path d="M152.15 328.16C160.236 328.16 166.791 321.739 166.791 313.819C166.791 305.899 160.236 299.479 152.15 299.479C144.064 299.479 137.509 305.899 137.509 313.819C137.509 321.739 144.064 328.16 152.15 328.16Z" fill="#F06023"/>
<path d="M331.019 325.518H190.714C188.01 325.518 185.81 323.317 185.81 320.612C185.81 317.907 188.01 315.706 190.714 315.706H331.019C333.723 315.706 335.922 317.907 335.922 320.612C335.922 323.317 333.723 325.518 331.019 325.518H331.019V325.518Z" fill="#F2F2F2"/>
<path d="M296.356 60.0159C304.442 60.0159 310.997 53.5954 310.997 45.6754C310.997 37.7553 304.442 31.3348 296.356 31.3348C288.27 31.3348 281.715 37.7553 281.715 45.6754C281.715 53.5954 288.27 60.0159 296.356 60.0159Z" fill="#F06023"/>
<path d="M565.849 300.427C573.935 300.427 580.49 294.007 580.49 286.087C580.49 278.167 573.935 271.746 565.849 271.746C557.763 271.746 551.208 278.167 551.208 286.087C551.208 294.007 557.763 300.427 565.849 300.427Z" fill="#F06023"/>
</g>
<defs>
<clipPath id="clip0_6_2615">
<rect width="657" height="547" fill="white"/>
</clipPath>
</defs>
</svg>
