<svg width="1980" height="474" viewBox="0 0 1980 474" fill="none" xmlns="http://www.w3.org/2000/svg">
<rect y="110" width="1980" height="240" fill="#E2571C"/>
<g filter="url(#filter0_i_330_2)">
<path d="M0 382.168L22 395.588C44 408.807 88 435.949 132 443.84C176 452.032 220 440.975 264 435.798C308 430.42 352 430.42 396 417C440 403.781 484 376.639 528 384.832C572 392.723 616 435.949 660 443.84C704 452.032 748 424.891 792 411.672C836 398.252 880 398.252 924 392.874C968 387.697 1012 376.639 1056 387.546C1100 398.252 1144 430.42 1188 435.798C1232 440.975 1276 419.865 1320 419.714C1364 419.865 1408 440.975 1452 441.126C1496 440.975 1540 419.865 1584 422.378C1628 424.891 1672 452.032 1716 467.966C1760 484.2 1804 459.773 1848 443.84C1892 427.605 1936 419.865 1958 400.916L1980 382.168V350H1958C1936 350 1892 350 1848 350C1804 350 1760 350 1716 350C1672 350 1628 350 1584 350C1540 350 1496 350 1452 350C1408 350 1364 350 1320 350C1276 350 1232 350 1188 350C1144 350 1100 350 1056 350C1012 350 968 350 924 350C880 350 836 350 792 350C748 350 704 350 660 350C616 350 572 350 528 350C484 350 440 350 396 350C352 350 308 350 264 350C220 350 176 350 132 350C88 350 44 350 22 350H0V382.168Z" fill="#E2571C"/>
</g>
<g filter="url(#filter1_i_330_2)">
<path d="M0 33.9006L22 31.7309C44 29.3975 88 25.3037 132 20.8006C176 16.2976 220 12.2038 264 14.2507C308 16.2976 352 25.3037 396 36.0702C440 47.0005 484 60.1004 528 51.3807C572 42.4974 616 12.2038 660 3.32044C704 -5.39918 748 7.70074 792 20.8006C836 33.9006 880 47.0005 924 53.5504C968 60.1004 1012 60.1004 1056 55.7201C1100 51.5036 1144 42.4974 1188 51.3807C1232 60.1004 1276 86.3002 1320 81.9199C1364 77.7034 1408 42.4974 1452 25.1809C1496 7.70073 1540 7.70074 1584 14.2507C1628 20.8006 1672 33.9005 1716 36.0702C1760 38.4036 1804 29.3975 1848 33.9006C1892 38.4036 1936 55.5973 1958 64.4806L1980 73.2003V112.5H1958C1936 112.5 1892 112.5 1848 112.5C1804 112.5 1760 112.5 1716 112.5C1672 112.5 1628 112.5 1584 112.5C1540 112.5 1496 112.5 1452 112.5C1408 112.5 1364 112.5 1320 112.5C1276 112.5 1232 112.5 1188 112.5C1144 112.5 1100 112.5 1056 112.5C1012 112.5 968 112.5 924 112.5C880 112.5 836 112.5 792 112.5C748 112.5 704 112.5 660 112.5C616 112.5 572 112.5 528 112.5C484 112.5 440 112.5 396 112.5C352 112.5 308 112.5 264 112.5C220 112.5 176 112.5 132 112.5C88 112.5 44 112.5 22 112.5H0V33.9006Z" fill="#E2571C"/>
</g>
<defs>
<filter id="filter0_i_330_2" x="0" y="347" width="1980" height="126.313" filterUnits="userSpaceOnUse" color-interpolation-filters="sRGB">
<feFlood flood-opacity="0" result="BackgroundImageFix"/>
<feBlend mode="normal" in="SourceGraphic" in2="BackgroundImageFix" result="shape"/>
<feColorMatrix in="SourceAlpha" type="matrix" values="0 0 0 0 0 0 0 0 0 0 0 0 0 0 0 0 0 0 127 0" result="hardAlpha"/>
<feOffset dy="-3"/>
<feGaussianBlur stdDeviation="2"/>
<feComposite in2="hardAlpha" operator="arithmetic" k2="-1" k3="1"/>
<feColorMatrix type="matrix" values="0 0 0 0 0 0 0 0 0 0 0 0 0 0 0 0 0 0 0.25 0"/>
<feBlend mode="normal" in2="shape" result="effect1_innerShadow_330_2"/>
</filter>
<filter id="filter1_i_330_2" x="0" y="0.5" width="1980" height="114" filterUnits="userSpaceOnUse" color-interpolation-filters="sRGB">
<feFlood flood-opacity="0" result="BackgroundImageFix"/>
<feBlend mode="normal" in="SourceGraphic" in2="BackgroundImageFix" result="shape"/>
<feColorMatrix in="SourceAlpha" type="matrix" values="0 0 0 0 0 0 0 0 0 0 0 0 0 0 0 0 0 0 127 0" result="hardAlpha"/>
<feOffset dy="2"/>
<feGaussianBlur stdDeviation="2"/>
<feComposite in2="hardAlpha" operator="arithmetic" k2="-1" k3="1"/>
<feColorMatrix type="matrix" values="0 0 0 0 0 0 0 0 0 0 0 0 0 0 0 0 0 0 0.25 0"/>
<feBlend mode="normal" in2="shape" result="effect1_innerShadow_330_2"/>
</filter>
</defs>
</svg>
