<svg width="94" height="70" viewBox="0 0 94 70" fill="none" xmlns="http://www.w3.org/2000/svg">
<path d="M84.8723 0.191528H9.30981C4.5145 0.191528 0.591064 4.07278 0.591064 8.81653V60.5665C0.591064 65.3103 4.5145 69.1915 9.30981 69.1915H84.8723C89.6676 69.1915 93.5911 65.3103 93.5911 60.5665V8.81653C93.5911 4.07278 89.6676 0.191528 84.8723 0.191528ZM9.30981 5.94153H84.8723C86.4475 5.94153 87.7786 7.25828 87.7786 8.81653V17.4415H6.40356V8.81653C6.40356 7.25828 7.73463 5.94153 9.30981 5.94153ZM84.8723 63.4415H9.30981C7.73463 63.4415 6.40356 62.1248 6.40356 60.5665V34.6915H87.7786V60.5665C87.7786 62.1248 86.4475 63.4415 84.8723 63.4415ZM12.2161 46.1915H18.0286V57.6915H12.2161V46.1915ZM23.8411 46.1915H29.6536V57.6915H23.8411V46.1915ZM35.4661 46.1915H41.2786V57.6915H35.4661V46.1915Z" fill="white"/>
</svg>
