<svg width="19" height="19" viewBox="0 0 19 19" fill="none" xmlns="http://www.w3.org/2000/svg">
<path d="M3.40171 18.1767C3.30909 18.7391 3.82921 19.1786 4.28757 18.9278L9.5006 16.0704L14.7124 18.9278C15.1708 19.1786 15.6909 18.7391 15.5983 18.178L14.6127 12.1871L18.795 7.93651C19.1869 7.53881 18.985 6.8118 18.4601 6.73327L12.6439 5.85174L10.0504 0.371287C10.001 0.260195 9.92306 0.166335 9.82563 0.100611C9.7282 0.0348883 9.61529 0 9.50001 0C9.38473 0 9.27182 0.0348883 9.17439 0.100611C9.07696 0.166335 8.99902 0.260195 8.94961 0.371287L6.35616 5.853L0.539891 6.73454C0.0162131 6.81306 -0.186846 7.54007 0.203835 7.93778L4.38732 12.1884L3.40171 18.1793V18.1767ZM9.2263 14.6721L4.84925 17.071L5.67336 12.0592C5.69267 11.9438 5.68511 11.8252 5.65136 11.7136C5.61761 11.6021 5.5587 11.5011 5.4798 11.4196L2.02899 7.91118L6.84065 7.18164C6.94029 7.16559 7.03479 7.12402 7.11607 7.06049C7.19734 6.99696 7.26297 6.91337 7.30733 6.81686L9.49823 2.18375L11.6915 6.81686C11.7359 6.91337 11.8015 6.99696 11.8828 7.06049C11.964 7.12402 12.0585 7.16559 12.1582 7.18164L16.9698 7.90991L13.519 11.4183C13.4399 11.5 13.3809 11.6012 13.3472 11.713C13.3134 11.8247 13.306 11.9436 13.3255 12.0592L14.1496 17.071L9.77254 14.6721C9.6879 14.6256 9.59405 14.6013 9.49882 14.6013C9.40359 14.6013 9.31094 14.6256 9.2263 14.6721Z" fill="#E2571C"/>
</svg>
