<svg width="57" height="68" viewBox="0 0 57 68" fill="none" xmlns="http://www.w3.org/2000/svg">
<path d="M30.336 12.8149V8.54785H38.9514V4.36035C38.9514 2.04676 37.0237 0.172852 34.6437 0.172852H21.7207C19.3407 0.172852 17.413 2.04676 17.413 4.36035V8.54785H26.0283V12.8149C11.5717 13.8848 0.18219 25.6266 0.18219 39.9541C0.18219 54.9872 12.7176 67.1729 28.1822 67.1729C43.6468 67.1729 56.1822 54.9872 56.1822 39.9541C56.1822 25.6266 44.7927 13.8848 30.336 12.8149ZM43.412 54.759C39.3434 58.7141 33.9351 60.8916 28.1822 60.8916C22.4293 60.8916 17.021 58.7141 12.9523 54.759C8.88373 50.8039 6.64373 45.5465 6.64373 39.9541C6.64373 34.3617 8.88373 29.1043 12.9523 25.1492C16.8594 21.3511 22.0007 19.1946 27.4994 19.0292L26.0413 39.5751C25.9163 41.2962 26.8791 42.0479 28.1843 42.0479C29.4896 42.0479 30.4523 41.2941 30.3274 39.5751L28.8693 19.0292C34.3659 19.1946 39.5093 21.3532 43.4163 25.1492C47.485 29.1043 49.725 34.3617 49.725 39.9541C49.725 45.5465 47.485 50.8039 43.4163 54.759H43.412Z" fill="white"/>
</svg>
