<svg width="24" height="25" viewBox="0 0 24 25" fill="none" xmlns="http://www.w3.org/2000/svg">
<path d="M7.539 24.5C16.596 24.5 21.5505 15.2642 21.5505 7.26892C21.5505 7.01047 21.5505 6.74833 21.5415 6.48988C22.5061 5.63052 23.3386 4.56657 24 3.3479C23.099 3.83683 22.1441 4.15906 21.1665 4.30415C22.1963 3.5466 22.9676 2.35466 23.337 0.949871C22.3695 1.65529 21.3105 2.1505 20.2065 2.41379C19.4643 1.44097 18.4821 0.796497 17.4121 0.580212C16.3421 0.363928 15.2441 0.587899 14.288 1.21743C13.3319 1.84697 12.5712 2.84693 12.1237 4.06243C11.6761 5.27793 11.5668 6.64114 11.8125 7.94088C9.85461 7.82006 7.93922 7.19409 6.19056 6.10358C4.4419 5.01307 2.89903 3.48237 1.662 1.61076C1.03401 2.94561 0.842361 4.52457 1.12597 6.02701C1.40958 7.52945 2.14718 8.84274 3.189 9.70017C2.40831 9.66753 1.64478 9.40953 0.96 8.94698V9.03006C0.961346 10.4284 1.35496 11.7833 2.07431 12.8657C2.79366 13.9481 3.79462 14.6917 4.908 14.9707C4.48539 15.1139 4.04884 15.1854 3.6105 15.183C3.30148 15.1841 2.99307 15.1489 2.6895 15.0777C3.00418 16.2815 3.61691 17.3339 4.44187 18.0877C5.26683 18.8414 6.2627 19.2588 7.29 19.2812C5.54483 20.9681 3.3891 21.883 1.17 21.8786C0.778981 21.8806 0.388235 21.8529 0 21.7955C2.25227 23.5627 4.86795 24.501 7.539 24.5Z" fill="#E2571C"/>
</svg>
