<!-- Generated by IcoMoon.io -->
<svg version="1.1" xmlns="http://www.w3.org/2000/svg" width="31" height="32" viewBox="0 0 31 32">
<title>Vector-2</title>
<path fill="#e2571c" d="M15.36 0.64c-4.168 0-4.692 0.019-6.33 0.092-1.638 0.077-2.753 0.334-3.731 0.714-1.025 0.386-1.954 0.99-2.721 1.772-0.781 0.767-1.386 1.696-1.772 2.721-0.38 0.975-0.639 2.093-0.714 3.725-0.073 1.642-0.092 2.164-0.092 6.338 0 4.17 0.019 4.692 0.092 6.33 0.077 1.636 0.334 2.751 0.714 3.729 0.394 1.010 0.918 1.866 1.772 2.721 0.852 0.854 1.709 1.38 2.719 1.772 0.979 0.38 2.093 0.639 3.729 0.714 1.64 0.073 2.162 0.092 6.334 0.092s4.692-0.019 6.332-0.092c1.634-0.077 2.753-0.334 3.731-0.714 1.024-0.386 1.952-0.991 2.719-1.772 0.854-0.854 1.379-1.711 1.772-2.721 0.378-0.977 0.637-2.093 0.714-3.729 0.073-1.638 0.092-2.16 0.092-6.332s-0.019-4.694-0.092-6.334c-0.077-1.634-0.336-2.751-0.714-3.727-0.386-1.025-0.991-1.953-1.772-2.721-0.767-0.782-1.695-1.387-2.721-1.772-0.979-0.38-2.097-0.639-3.731-0.714-1.64-0.073-2.16-0.092-6.334-0.092h0.004zM13.983 3.409h1.379c4.101 0 4.587 0.013 6.205 0.088 1.498 0.067 2.312 0.319 2.853 0.528 0.716 0.278 1.229 0.612 1.766 1.15s0.87 1.048 1.148 1.766c0.211 0.54 0.461 1.354 0.528 2.851 0.075 1.619 0.090 2.104 0.090 6.204s-0.015 4.587-0.090 6.205c-0.067 1.498-0.319 2.31-0.528 2.851-0.246 0.667-0.639 1.27-1.15 1.764-0.538 0.538-1.048 0.87-1.766 1.148-0.538 0.211-1.352 0.461-2.851 0.53-1.619 0.073-2.104 0.090-6.205 0.090s-4.589-0.017-6.207-0.090c-1.498-0.069-2.31-0.319-2.851-0.53-0.667-0.246-1.271-0.638-1.766-1.148-0.511-0.495-0.905-1.099-1.152-1.766-0.209-0.54-0.461-1.354-0.528-2.851-0.073-1.619-0.088-2.104-0.088-6.207 0-4.101 0.015-4.585 0.088-6.204 0.069-1.498 0.319-2.312 0.53-2.853 0.278-0.716 0.612-1.229 1.15-1.766s1.048-0.87 1.766-1.148c0.541-0.211 1.354-0.461 2.851-0.53 1.417-0.065 1.966-0.084 4.829-0.086v0.004zM23.56 5.958c-0.242 0-0.482 0.048-0.705 0.14s-0.427 0.228-0.598 0.4c-0.171 0.171-0.307 0.374-0.4 0.598s-0.14 0.463-0.14 0.705c0 0.242 0.048 0.482 0.14 0.705s0.228 0.427 0.4 0.598c0.171 0.171 0.374 0.307 0.598 0.4s0.463 0.14 0.705 0.14c0.489 0 0.958-0.194 1.303-0.54s0.54-0.815 0.54-1.303-0.194-0.958-0.54-1.303c-0.346-0.346-0.814-0.54-1.303-0.54zM15.362 8.113c-1.046-0.016-2.085 0.176-3.057 0.565s-1.856 0.968-2.601 1.702-1.338 1.609-1.742 2.574c-0.404 0.965-0.612 2.001-0.612 3.047s0.208 2.082 0.612 3.048 0.996 1.84 1.742 2.574c0.746 0.734 1.63 1.313 2.601 1.702s2.010 0.581 3.057 0.565c2.071-0.032 4.046-0.878 5.499-2.353s2.267-3.464 2.267-5.535c0-2.071-0.814-4.059-2.267-5.535s-3.428-2.321-5.499-2.353zM15.362 10.879c1.358 0 2.66 0.54 3.621 1.5s1.5 2.263 1.5 3.621-0.54 2.66-1.5 3.621c-0.96 0.96-2.263 1.5-3.621 1.5s-2.661-0.54-3.621-1.5c-0.96-0.96-1.5-2.263-1.5-3.621s0.54-2.66 1.5-3.621c0.96-0.96 2.263-1.5 3.621-1.5z"></path>
</svg>
