<!-- Generated by IcoMoon.io -->
<svg version="1.1" xmlns="http://www.w3.org/2000/svg" width="31" height="32" viewBox="0 0 31 32">
<title>Vector</title>
<path fill="#e2571c" d="M9.65 31.36c11.593 0 17.935-11.822 17.935-22.056 0-0.331 0-0.666-0.012-0.997 1.235-1.1 2.3-2.462 3.147-4.022-1.153 0.626-2.376 1.038-3.627 1.224 1.318-0.97 2.305-2.495 2.778-4.293-1.238 0.903-2.594 1.537-4.007 1.874-0.95-1.245-2.207-2.070-3.577-2.347s-2.775 0.010-3.999 0.816c-1.224 0.806-2.197 2.086-2.77 3.642s-0.713 3.301-0.398 4.964c-2.506-0.155-4.958-0.956-7.196-2.352s-4.213-3.355-5.797-5.751c-0.804 1.709-1.049 3.73-0.686 5.653s1.307 3.604 2.641 4.702c-0.999-0.042-1.977-0.372-2.853-0.964v0.106c0.002 1.79 0.506 3.524 1.426 4.91s2.202 2.337 3.627 2.694c-0.541 0.183-1.1 0.275-1.661 0.272-0.396 0.001-0.79-0.044-1.179-0.135 0.403 1.541 1.187 2.888 2.243 3.853s2.331 1.499 3.646 1.528c-2.234 2.159-4.993 3.33-7.834 3.325-0.5 0.003-1.001-0.033-1.498-0.106 2.883 2.262 6.231 3.463 9.65 3.462z"></path>
</svg>
